<svg xmlns="http://www.w3.org/2000/svg" xml:space="preserve" id="Layer_1" data-name="Layer 1" version="1.1" viewBox="0 0 994.71 151.65"><defs id="defs1"><style id="style1">.cls-1{fill:#fd4b2d}</style></defs><path id="text18" d="M44.579 93.231c0 15.16 10.388 27.514 28.777 27.514 15.862 0 28.495-12.353 28.495-27.233 0-13.195-7.018-21.617-22.038-26.11-7.16-2.105-14.88-3.228-14.88-9.545 0-5.474 4.352-8.142 8.844-8.142 5.755 0 8.703 3.93 8.703 8.704h19.371c-1.123-15.582-9.966-27.514-28.636-27.514-15.862 0-28.636 12.353-28.636 27.233 0 14.458 7.86 21.056 22.039 26.11 6.878 2.386 15.16 4.21 15.16 10.527 0 4.352-3.229 7.3-8.422 7.3-4.773 0-8.704-3.93-8.704-8.844zm41.69-38.743c-1.262-3.51-4.21-8.703-12.913-8.703v-10.95c16.423 0 22.6 11.371 23.442 19.653zM49.493 97.162h10.95c1.262 4.632 5.754 8.703 12.914 8.843v10.81c-13.336 0-23.583-9.125-23.864-19.653zm67.099-21.337c0 25.127 18.67 44.92 45.34 44.92 26.531 0 45.341-19.793 45.341-44.92 0-25.127-18.81-44.92-45.34-44.92-26.672 0-45.341 19.793-45.341 44.92zm20.915 0c0-14.178 9.405-25.408 24.425-25.408 14.88 0 24.426 11.23 24.426 25.408s-9.546 25.408-24.426 25.408c-15.02 0-24.425-11.23-24.425-25.408zm-14.88 8.844h10.81c3.369 12.072 13.756 20.915 28.495 20.915 14.74 0 25.127-8.703 28.496-20.915h10.81c-3.79 18.389-19.092 31.864-39.306 31.864-20.354 0-35.655-13.335-39.304-31.864zm99.807-8.844c0 25.127 18.95 44.92 45.621 44.92 15.582 0 27.233-6.598 35.655-15.441l-13.757-13.476c-5.895 5.755-13.475 9.405-21.898 9.405-15.02 0-24.706-11.23-24.706-25.408s9.686-25.408 24.706-25.408c8.423 0 16.003 3.65 21.899 9.405l14.177-13.476c-8.984-9.405-20.073-15.44-36.076-15.44-26.67 0-45.621 19.792-45.621 44.919zm45.621-29.338V34.836c12.634 0 22.32 3.93 29.76 11.51l-8.002 7.721c-6.036-4.632-13.757-7.58-21.758-7.58zm0 70.327v-11.65c8.423 0 16.424-3.23 21.477-7.721l8.002 8.141c-7.861 7.3-17.126 11.23-29.479 11.23zm46.885-40.989c0 25.127 18.67 44.92 45.34 44.92 26.532 0 45.342-19.793 45.342-44.92 0-25.127-18.81-44.92-45.341-44.92-26.671 0-45.34 19.793-45.34 44.92zm20.916 0c0-14.178 9.405-25.408 24.425-25.408 14.88 0 24.425 11.23 24.425 25.408s-9.545 25.408-24.425 25.408c-15.02 0-24.425-11.23-24.425-25.408zm-14.88 8.844h10.809c3.369 12.072 13.757 20.915 28.496 20.915 14.74 0 25.127-8.703 28.496-20.915h10.809c-3.79 18.389-19.091 31.864-39.305 31.864-20.354 0-35.655-13.335-39.305-31.864zm95.174 33.268h69.485v-19.09H447.17l39.867-63.169v-1.965H420.92v18.95h33.69l-38.462 63.309zm9.686-69.204v-10.95h38.602l-7.159 10.95zm11.37 65.133 6.738-11.09h36.918v11.09zm88.014 4.071h20.495V77.23l29.9-43.516h-23.162L535.467 58.98l-16.845-25.267H495.32l29.9 43.516zm19.232-46.885-5.756-8.563 16.845-24.846h11.932zm39.024 39.305c0 6.036 4.07 9.686 10.106 9.686 6.037 0 10.107-3.65 10.107-9.686s-4.07-9.686-10.107-9.686c-6.036 0-10.106 3.65-10.106 9.686zM615.9 75.825c0 25.127 18.95 44.92 45.621 44.92 15.582 0 27.233-6.598 35.655-15.441l-13.756-13.476c-5.896 5.755-13.476 9.405-21.899 9.405-15.02 0-24.705-11.23-24.705-25.408s9.685-25.408 24.705-25.408c8.423 0 16.003 3.65 21.899 9.405l14.178-13.476c-8.984-9.405-20.074-15.44-36.077-15.44-26.67 0-45.621 19.792-45.621 44.919zm45.621-29.338V34.836c12.634 0 22.32 3.93 29.76 11.51l-8.002 7.721c-6.036-4.632-13.756-7.58-21.758-7.58zm0 70.327v-11.65c8.423 0 16.424-3.23 21.478-7.721l8 8.141c-7.86 7.3-17.125 11.23-29.478 11.23zm41.551 1.123h22.18l4.07-8.703h33.269l4.21 8.703h22.18l-41.27-87.032h-3.65zm32.707-23.442 9.826-21.337h.281l9.686 21.337Zm25.408 0h11.37l9.265 19.512h-11.651zm-51.096 19.512 9.265-19.512h11.37l-9.125 19.512zm87.453-20.776c0 15.16 10.387 27.514 28.776 27.514 15.863 0 28.496-12.353 28.496-27.233 0-13.195-7.018-21.617-22.038-26.11-7.16-2.105-14.88-3.228-14.88-9.545 0-5.474 4.352-8.142 8.844-8.142 5.755 0 8.703 3.93 8.703 8.704h19.371c-1.123-15.582-9.966-27.514-28.636-27.514-15.862 0-28.636 12.353-28.636 27.233 0 14.458 7.86 21.056 22.038 26.11 6.879 2.386 15.16 4.21 15.16 10.527 0 4.352-3.228 7.3-8.422 7.3-4.772 0-8.703-3.93-8.703-8.844zm41.69-38.743c-1.263-3.51-4.21-8.703-12.914-8.703v-10.95c16.424 0 22.6 11.371 23.443 19.653zm-36.777 42.674h10.949c1.263 4.632 5.755 8.703 12.914 8.843v10.81c-13.335 0-23.582-9.125-23.863-19.653zm61.764 20.775h22.18l4.07-8.703h33.269l4.211 8.703h22.18l-41.27-87.032h-3.65zm32.707-23.442 9.827-21.337h.28l9.686 21.337zm25.408 0h11.37l9.265 19.512h-11.65zm-51.096 19.512 9.265-19.512h11.37l-9.124 19.512z" aria-label="SOCOZY.CASA" style="font-size:140.374px;font-family:&quot;Acier BAT&quot;;-inkscape-font-specification:&quot;Acier BAT, Normal&quot;;fill:#955fbe;stroke-width:1.28748"/></svg>
